<svg xmlns="http://www.w3.org/2000/svg" width="1em" height="1em" viewBox="0 0 20 20"><rect width="20" height="20" fill="none"/><path fill="#c070e6" d="M6 4v13h4.54c1.37 0 2.46-.33 3.26-1c.8-.66 1.2-1.58 1.2-2.77q0-1.26-.51-2.01c-.51-.75-.9-.85-1.67-1.03v-.09c.57-.1 1.02-.4 1.36-.9s.51-1.13.51-1.91c0-1.14-.39-1.98-1.17-2.5C12.75 4.26 11.5 4 9.78 4zm2.57 5.15V6.26h1.36c.73 0 1.27.11 1.61.32c.34.22.51.58.51 1.07c0 .54-.16.92-.47 1.15s-.82.35-1.51.35zm0 2.19h1.6c1.44 0 2.16.53 2.16 1.61c0 .6-.17 1.05-.51 1.34s-.86.43-1.57.43H8.57z"/></svg>