<svg xmlns="http://www.w3.org/2000/svg" width="1em" height="1em" viewBox="0 0 24 24">
	<g fill="none" stroke="currentColor" stroke-linecap="round" stroke-linejoin="round" stroke-width="1.5" color="currentColor">
		<path d="M6.514 2c-1.304.129-2.182.419-2.838 1.076c-1.175 1.177-1.175 3.072-1.175 6.863v4.02c0 3.79 0 5.686 1.175 6.864S6.743 22 10.526 22h2.007c3.783 0 5.675 0 6.85-1.177c1.067-1.07 1.166-2.717 1.175-5.846" />
		<path d="m10.526 7l1.003 3.5c.56 1.11 1.263 1.4 3.01 1.5c1.389-.034 2.195-.198 2.883-.796c.469-.408.681-1.023.784-1.635L18.55 7.5m2.508-2v5M8.601 4.933c1.587-1.317 3.001-2.024 5.934-2.802a1.94 1.94 0 0 1 1.009.005c2.596.714 3.998 1.348 5.876 2.758c.08.06.104.172.048.255c-.613.902-1.982 1.633-5.34 2.935a2.98 2.98 0 0 1-2.171-.012c-3.576-1.42-5.22-2.18-5.42-2.969a.17.17 0 0 1 .064-.17" />
	</g>
</svg>